<?xml version="1.0" encoding="UTF-8"?>
<svg xmlns="http://www.w3.org/2000/svg" width="737" height="257">
   <defs>
      <style type="text/css">
    @namespace "http://www.w3.org/2000/svg";
    .line                 {fill: none; stroke: #332900; stroke-width: 1;}
    .bold-line            {stroke: #141000; shape-rendering: crispEdges; stroke-width: 2;}
    .thin-line            {stroke: #1F1800; shape-rendering: crispEdges}
    .filled               {fill: #332900; stroke: none;}
    text.terminal         {font-family: Verdana, Sans-serif;
                            font-size: 12px;
                            fill: #141000;
                            font-weight: bold;
                          }
    text.nonterminal      {font-family: Verdana, Sans-serif;
                            font-size: 12px;
                            fill: #1A1400;
                            font-weight: normal;
                          }
    text.regexp           {font-family: Verdana, Sans-serif;
                            font-size: 12px;
                            fill: #1F1800;
                            font-weight: normal;
                          }
    rect, circle, polygon {fill: #332900; stroke: #332900;}
    rect.terminal         {fill: #FFDB4D; stroke: #332900; stroke-width: 1;}
    rect.nonterminal      {fill: #FFEC9E; stroke: #332900; stroke-width: 1;}
    rect.text             {fill: none; stroke: none;}
    polygon.regexp        {fill: #FFF4C7; stroke: #332900; stroke-width: 1;}
  </style>
   </defs>
   <polygon points="9 17 1 13 1 21"/>
   <polygon points="17 17 9 13 9 21"/>
   <rect x="51" y="3" width="46" height="32" rx="10"/>
   <rect x="49"
         y="1"
         width="46"
         height="32"
         class="terminal"
         rx="10"/>
   <text class="terminal" x="59" y="21">GET</text>
   <rect x="137" y="3" width="126" height="32" rx="10"/>
   <rect x="135"
         y="1"
         width="126"
         height="32"
         class="terminal"
         rx="10"/>
   <text class="terminal" x="145" y="21">CURRENT-DATE</text>
   <rect x="137" y="47" width="124" height="32" rx="10"/>
   <rect x="135"
         y="45"
         width="124"
         height="32"
         class="terminal"
         rx="10"/>
   <text class="terminal" x="145" y="65">CURRENT-TIME</text>
   <rect x="137" y="91" width="160" height="32" rx="10"/>
   <rect x="135"
         y="89"
         width="160"
         height="32"
         class="terminal"
         rx="10"/>
   <text class="terminal" x="145" y="109">CURRENT-DATETIME</text>
   <rect x="337" y="3" width="56" height="32" rx="10"/>
   <rect x="335"
         y="1"
         width="56"
         height="32"
         class="terminal"
         rx="10"/>
   <text class="terminal" x="345" y="21">INTO</text>
   <a xmlns:xlink="http://www.w3.org/1999/xlink"
      xlink:href="#variable"
      xlink:title="variable">
      <rect x="413" y="3" width="70" height="32"/>
      <rect x="411" y="1" width="70" height="32" class="nonterminal"/>
      <text class="nonterminal" x="421" y="21">variable</text>
   </a>
   <rect x="523" y="35" width="24" height="32" rx="10"/>
   <rect x="521"
         y="33"
         width="24"
         height="32"
         class="terminal"
         rx="10"/>
   <text class="terminal" x="531" y="53">:</text>
   <a xmlns:xlink="http://www.w3.org/1999/xlink"
      xlink:href="#format-spec"
      xlink:title="format-spec">
      <rect x="567" y="35" width="96" height="32"/>
      <rect x="565" y="33" width="96" height="32" class="nonterminal"/>
      <text class="nonterminal" x="575" y="53">format-spec</text>
   </a>
   <rect x="51" y="135" width="76" height="32" rx="10"/>
   <rect x="49"
         y="133"
         width="76"
         height="32"
         class="terminal"
         rx="10"/>
   <text class="terminal" x="59" y="153">FORMAT</text>
   <rect x="167" y="135" width="56" height="32" rx="10"/>
   <rect x="165"
         y="133"
         width="56"
         height="32"
         class="terminal"
         rx="10"/>
   <text class="terminal" x="175" y="153">DATE</text>
   <rect x="167" y="179" width="54" height="32" rx="10"/>
   <rect x="165"
         y="177"
         width="54"
         height="32"
         class="terminal"
         rx="10"/>
   <text class="terminal" x="175" y="197">TIME</text>
   <rect x="167" y="223" width="90" height="32" rx="10"/>
   <rect x="165"
         y="221"
         width="90"
         height="32"
         class="terminal"
         rx="10"/>
   <text class="terminal" x="175" y="241">DATETIME</text>
   <a xmlns:xlink="http://www.w3.org/1999/xlink"
      xlink:href="#variable"
      xlink:title="variable">
      <rect x="297" y="135" width="70" height="32"/>
      <rect x="295" y="133" width="70" height="32" class="nonterminal"/>
      <text class="nonterminal" x="305" y="153">variable</text>
   </a>
   <rect x="387" y="135" width="38" height="32" rx="10"/>
   <rect x="385"
         y="133"
         width="38"
         height="32"
         class="terminal"
         rx="10"/>
   <text class="terminal" x="395" y="153">AS</text>
   <a xmlns:xlink="http://www.w3.org/1999/xlink"
      xlink:href="#format-spec"
      xlink:title="format-spec">
      <rect x="445" y="135" width="96" height="32"/>
      <rect x="443" y="133" width="96" height="32" class="nonterminal"/>
      <text class="nonterminal" x="453" y="153">format-spec</text>
   </a>
   <rect x="561" y="135" width="38" height="32" rx="10"/>
   <rect x="559"
         y="133"
         width="38"
         height="32"
         class="terminal"
         rx="10"/>
   <text class="terminal" x="569" y="153">TO</text>
   <a xmlns:xlink="http://www.w3.org/1999/xlink"
      xlink:href="#variable"
      xlink:title="variable">
      <rect x="619" y="135" width="70" height="32"/>
      <rect x="617" y="133" width="70" height="32" class="nonterminal"/>
      <text class="nonterminal" x="627" y="153">variable</text>
   </a>
   <path class="line"
         d="m17 17 h2 m20 0 h10 m46 0 h10 m20 0 h10 m126 0 h10 m0 0 h34 m-200 0 h20 m180 0 h20 m-220 0 q10 0 10 10 m200 0 q0 -10 10 -10 m-210 10 v24 m200 0 v-24 m-200 24 q0 10 10 10 m180 0 q10 0 10 -10 m-190 10 h10 m124 0 h10 m0 0 h36 m-190 -10 v20 m200 0 v-20 m-200 20 v24 m200 0 v-24 m-200 24 q0 10 10 10 m180 0 q10 0 10 -10 m-190 10 h10 m160 0 h10 m20 -88 h10 m56 0 h10 m0 0 h10 m70 0 h10 m20 0 h10 m0 0 h150 m-180 0 h20 m160 0 h20 m-200 0 q10 0 10 10 m180 0 q0 -10 10 -10 m-190 10 v12 m180 0 v-12 m-180 12 q0 10 10 10 m160 0 q10 0 10 -10 m-170 10 h10 m24 0 h10 m0 0 h10 m96 0 h10 m20 -32 h6 m-678 0 h20 m658 0 h20 m-698 0 q10 0 10 10 m678 0 q0 -10 10 -10 m-688 10 v112 m678 0 v-112 m-678 112 q0 10 10 10 m658 0 q10 0 10 -10 m-668 10 h10 m76 0 h10 m20 0 h10 m56 0 h10 m0 0 h34 m-130 0 h20 m110 0 h20 m-150 0 q10 0 10 10 m130 0 q0 -10 10 -10 m-140 10 v24 m130 0 v-24 m-130 24 q0 10 10 10 m110 0 q10 0 10 -10 m-120 10 h10 m54 0 h10 m0 0 h36 m-120 -10 v20 m130 0 v-20 m-130 20 v24 m130 0 v-24 m-130 24 q0 10 10 10 m110 0 q10 0 10 -10 m-120 10 h10 m90 0 h10 m20 -88 h10 m70 0 h10 m0 0 h10 m38 0 h10 m0 0 h10 m96 0 h10 m0 0 h10 m38 0 h10 m0 0 h10 m70 0 h10 m23 -132 h-3"/>
   <polygon points="727 17 735 13 735 21"/>
   <polygon points="727 17 719 13 719 21"/>
</svg>
