<?xml version="1.0" encoding="UTF-8"?>
<svg xmlns="http://www.w3.org/2000/svg" width="357" height="37">
   <defs>
      <style type="text/css">
    @namespace "http://www.w3.org/2000/svg";
    .line                 {fill: none; stroke: #332900; stroke-width: 1;}
    .bold-line            {stroke: #141000; shape-rendering: crispEdges; stroke-width: 2;}
    .thin-line            {stroke: #1F1800; shape-rendering: crispEdges}
    .filled               {fill: #332900; stroke: none;}
    text.terminal         {font-family: Verdana, Sans-serif;
                            font-size: 12px;
                            fill: #141000;
                            font-weight: bold;
                          }
    text.nonterminal      {font-family: Verdana, Sans-serif;
                            font-size: 12px;
                            fill: #1A1400;
                            font-weight: normal;
                          }
    text.regexp           {font-family: Verdana, Sans-serif;
                            font-size: 12px;
                            fill: #1F1800;
                            font-weight: normal;
                          }
    rect, circle, polygon {fill: #332900; stroke: #332900;}
    rect.terminal         {fill: #FFDB4D; stroke: #332900; stroke-width: 1;}
    rect.nonterminal      {fill: #FFEC9E; stroke: #332900; stroke-width: 1;}
    rect.text             {fill: none; stroke: none;}
    polygon.regexp        {fill: #FFF4C7; stroke: #332900; stroke-width: 1;}
  </style>
   </defs>
   <polygon points="9 17 1 13 1 21"/>
   <polygon points="17 17 9 13 9 21"/>
   <rect x="31" y="3" width="60" height="32" rx="10"/>
   <rect x="29"
         y="1"
         width="60"
         height="32"
         class="terminal"
         rx="10"/>
   <text class="terminal" x="39" y="21">MOVE</text>
   <a xmlns:xlink="http://www.w3.org/1999/xlink"
      xlink:href="#variable"
      xlink:title="variable">
      <rect x="111" y="3" width="70" height="32"/>
      <rect x="109" y="1" width="70" height="32" class="nonterminal"/>
      <text class="nonterminal" x="119" y="21">variable</text>
   </a>
   <rect x="201" y="3" width="38" height="32" rx="10"/>
   <rect x="199"
         y="1"
         width="38"
         height="32"
         class="terminal"
         rx="10"/>
   <text class="terminal" x="209" y="21">TO</text>
   <a xmlns:xlink="http://www.w3.org/1999/xlink"
      xlink:href="#variable"
      xlink:title="variable">
      <rect x="259" y="3" width="70" height="32"/>
      <rect x="257" y="1" width="70" height="32" class="nonterminal"/>
      <text class="nonterminal" x="267" y="21">variable</text>
   </a>
   <path class="line"
         d="m17 17 h2 m0 0 h10 m60 0 h10 m0 0 h10 m70 0 h10 m0 0 h10 m38 0 h10 m0 0 h10 m70 0 h10 m3 0 h-3"/>
   <polygon points="347 17 355 13 355 21"/>
   <polygon points="347 17 339 13 339 21"/>
</svg>
